<?xml version="1.0" encoding="UTF-8" standalone="no"?>
<svg width="1070px" height="433px" viewBox="0 0 1070 433" version="1.1" xmlns="http://www.w3.org/2000/svg" xmlns:xlink="http://www.w3.org/1999/xlink" xmlns:sketch="http://www.bohemiancoding.com/sketch/ns">
    <!-- Generator: Sketch 3.0.4 (8053) - http://www.bohemiancoding.com/sketch -->
    <title>ticket</title>
    <desc>Created with Sketch.</desc>
    <defs>
        <path d="M1148.87039,125.376464 L1148.87039,0 L87.0678112,0 L87.0678112,125.376464 L87.0678111,125.376576 C87.2446545,125.375526 87.4216221,125.375 87.5987124,125.375 C135.978145,125.375 175.197425,164.62004 175.197425,213.03125 C175.197425,261.44246 135.978145,300.6875 87.5987124,300.6875 C87.4216221,300.6875 87.2446545,300.686974 87.0678112,300.686036 L87.0678112,425 L1148.87039,425 L1148.87039,300.686036 C1100.73526,300.400068 1061.80258,261.265253 1061.80258,213.03125 C1061.80258,164.797247 1100.73526,125.662432 1148.87039,125.376576 Z" id="path-1"></path>
    </defs>
    <g id="Page-1" stroke="none" stroke-width="1" fill="none" fill-rule="evenodd" sketch:type="MSPage">
        <g id="Desktop-HD" sketch:type="MSArtboardGroup" transform="translate(-138.000000, -539.000000)">
            <g id="ticket" sketch:type="MSLayerGroup" transform="translate(55.000000, 543.000000)">
                <g id="Rectangle-7" stroke-linejoin="round">
                    <use stroke-opacity="0.800724638" stroke="#000000" stroke-width="8" fill="none" sketch:type="MSShapeGroup" xlink:href="#path-1"></use>
                    <use stroke="#FFFFFF" stroke-width="4" fill-opacity="0.698143116" fill="#FFDB00" xlink:href="#path-1"></use>
                </g>
                <g id="Rectangle-6-+-ADMIT-ONE-2" transform="translate(220.000000, 295.000000)" fill-opacity="0.8" fill="#000000" sketch:type="MSShapeGroup">
                    <path d="M0,1 L0,92 L797,92 L797,1 L0,1 Z M212.171875,33.8828125 C212.171875,31.7473852 212.575517,29.7421969 213.382812,27.8671875 C214.190108,25.9921781 215.290358,24.3580799 216.683594,22.9648438 C218.07683,21.5716076 219.710928,20.4713582 221.585938,19.6640625 C223.460947,18.8567668 225.466135,18.453125 227.601562,18.453125 C229.73699,18.453125 231.742178,18.8567668 233.617188,19.6640625 C235.492197,20.4713582 237.126295,21.5716076 238.519531,22.9648438 C239.912767,24.3580799 241.013017,25.9921781 241.820312,27.8671875 C242.627608,29.7421969 243.03125,31.7473852 243.03125,33.8828125 L243.03125,74 L236.859375,74 L236.859375,49.3125 L218.34375,49.3125 L218.34375,74 L212.171875,74 L212.171875,33.8828125 Z M236.859375,43.140625 L236.859375,33.8828125 C236.859375,32.6067645 236.618492,31.4088598 236.136719,30.2890625 C235.654946,29.1692652 234.99089,28.1862021 234.144531,27.3398438 C233.298173,26.4934854 232.31511,25.8294295 231.195312,25.3476562 C230.075515,24.865883 228.877611,24.625 227.601562,24.625 C226.325514,24.625 225.12761,24.865883 224.007812,25.3476562 C222.888015,25.8294295 221.904952,26.4934854 221.058594,27.3398438 C220.212235,28.1862021 219.548179,29.1692652 219.066406,30.2890625 C218.584633,31.4088598 218.34375,32.6067645 218.34375,33.8828125 L218.34375,43.140625 L236.859375,43.140625 Z M255.140625,18.453125 L270.570312,18.453125 C272.70574,18.453125 274.710928,18.8567668 276.585938,19.6640625 C278.460947,20.4713582 280.095045,21.5716076 281.488281,22.9648438 C282.881517,24.3580799 283.981767,25.9921781 284.789062,27.8671875 C285.596358,29.7421969 286,31.7473852 286,33.8828125 L286,58.5703125 C286,60.7057398 285.596358,62.7109281 284.789062,64.5859375 C283.981767,66.4609469 282.881517,68.0950451 281.488281,69.4882812 C280.095045,70.8815174 278.460947,71.9817668 276.585938,72.7890625 C274.710928,73.5963582 272.70574,74 270.570312,74 L255.140625,74 L255.140625,18.453125 Z M270.570312,67.828125 C271.846361,67.828125 273.044265,67.587242 274.164062,67.1054688 C275.28386,66.6236955 276.266923,65.9596396 277.113281,65.1132812 C277.95964,64.2669229 278.623696,63.2838598 279.105469,62.1640625 C279.587242,61.0442652 279.828125,59.8463605 279.828125,58.5703125 L279.828125,33.8828125 C279.828125,32.6067645 279.587242,31.4088598 279.105469,30.2890625 C278.623696,29.1692652 277.95964,28.1862021 277.113281,27.3398438 C276.266923,26.4934854 275.28386,25.8294295 274.164062,25.3476562 C273.044265,24.865883 271.846361,24.625 270.570312,24.625 L261.3125,24.625 L261.3125,67.828125 L270.570312,67.828125 Z M322.796875,30.796875 L313.539062,46.96875 L304.28125,30.796875 L304.28125,74 L298.109375,74 L298.109375,18.453125 L304.28125,18.453125 L313.539062,36.96875 L322.796875,18.453125 L328.96875,18.453125 L328.96875,74 L322.796875,74 L322.796875,30.796875 Z M341.078125,67.828125 L353.421875,67.828125 L353.421875,24.625 L341.078125,24.625 L341.078125,18.453125 L371.9375,18.453125 L371.9375,24.625 L359.59375,24.625 L359.59375,67.828125 L371.9375,67.828125 L371.9375,74 L341.078125,74 L341.078125,67.828125 Z M396.390625,24.625 L384.046875,24.625 L384.046875,18.453125 L414.90625,18.453125 L414.90625,24.625 L402.5625,24.625 L402.5625,74 L396.390625,74 L396.390625,24.625 Z M469.984375,33.8828125 C469.984375,31.7473852 470.388017,29.7421969 471.195312,27.8671875 C472.002608,25.9921781 473.102858,24.3580799 474.496094,22.9648438 C475.88933,21.5716076 477.523428,20.4713582 479.398438,19.6640625 C481.273447,18.8567668 483.278635,18.453125 485.414062,18.453125 C487.54949,18.453125 489.554678,18.8567668 491.429688,19.6640625 C493.304697,20.4713582 494.938795,21.5716076 496.332031,22.9648438 C497.725267,24.3580799 498.825517,25.9921781 499.632812,27.8671875 C500.440108,29.7421969 500.84375,31.7473852 500.84375,33.8828125 L500.84375,58.5703125 C500.84375,60.7057398 500.440108,62.7109281 499.632812,64.5859375 C498.825517,66.4609469 497.725267,68.0950451 496.332031,69.4882812 C494.938795,70.8815174 493.304697,71.9817668 491.429688,72.7890625 C489.554678,73.5963582 487.54949,74 485.414062,74 C483.278635,74 481.273447,73.5963582 479.398438,72.7890625 C477.523428,71.9817668 475.88933,70.8815174 474.496094,69.4882812 C473.102858,68.0950451 472.002608,66.4609469 471.195312,64.5859375 C470.388017,62.7109281 469.984375,60.7057398 469.984375,58.5703125 L469.984375,33.8828125 Z M485.414062,24.625 C484.138014,24.625 482.94011,24.865883 481.820312,25.3476562 C480.700515,25.8294295 479.717452,26.4934854 478.871094,27.3398438 C478.024735,28.1862021 477.360679,29.1692652 476.878906,30.2890625 C476.397133,31.4088598 476.15625,32.6067645 476.15625,33.8828125 L476.15625,58.5703125 C476.15625,59.8463605 476.397133,61.0442652 476.878906,62.1640625 C477.360679,63.2838598 478.024735,64.2669229 478.871094,65.1132812 C479.717452,65.9596396 480.700515,66.6236955 481.820312,67.1054688 C482.94011,67.587242 484.138014,67.828125 485.414062,67.828125 C486.690111,67.828125 487.888015,67.587242 489.007812,67.1054688 C490.12761,66.6236955 491.110673,65.9596396 491.957031,65.1132812 C492.80339,64.2669229 493.467446,63.2838598 493.949219,62.1640625 C494.430992,61.0442652 494.671875,59.8463605 494.671875,58.5703125 L494.671875,33.8828125 C494.671875,32.6067645 494.430992,31.4088598 493.949219,30.2890625 C493.467446,29.1692652 492.80339,28.1862021 491.957031,27.3398438 C491.110673,26.4934854 490.12761,25.8294295 489.007812,25.3476562 C487.888015,24.865883 486.690111,24.625 485.414062,24.625 Z M512.953125,74 L512.953125,18.453125 L519.125,18.453125 L537.640625,59.546875 L537.640625,18.453125 L543.8125,18.453125 L543.8125,74 L537.640625,74 L519.125,32.90625 L519.125,74 L512.953125,74 Z M555.921875,18.453125 L586.78125,18.453125 L586.78125,24.625 L562.09375,24.625 L562.09375,43.140625 L580.609375,43.140625 L580.609375,49.3125 L562.09375,49.3125 L562.09375,67.828125 L586.78125,67.828125 L586.78125,74 L555.921875,74 L555.921875,18.453125 Z" id="Rectangle-6"></path>
                </g>
                <text id="METEOR-LONDON" sketch:type="MSTextLayer" font-family="Helvetica" font-size="86" font-weight="bold" fill="#000000">
                    <tspan x="237" y="245">METEOR LONDON</tspan>
                </text>
                <g id="Rectangle-5-+-TICKET-2" transform="translate(220.000000, 37.000000)" fill-opacity="0.800000191" fill="#000000" sketch:type="MSShapeGroup">
                    <path d="M0,2 L0,93 L797,93 L797,2 L0,2 Z M282.515625,24.625 L270.171875,24.625 L270.171875,18.453125 L301.03125,18.453125 L301.03125,24.625 L288.6875,24.625 L288.6875,74 L282.515625,74 L282.515625,24.625 Z M313.140625,67.828125 L325.484375,67.828125 L325.484375,24.625 L313.140625,24.625 L313.140625,18.453125 L344,18.453125 L344,24.625 L331.65625,24.625 L331.65625,67.828125 L344,67.828125 L344,74 L313.140625,74 L313.140625,67.828125 Z M371.65625,24.625 C370.328118,24.625 369.091152,24.865883 367.945312,25.3476562 C366.799473,25.8294295 365.8099,26.4934854 364.976562,27.3398438 C364.143225,28.1862021 363.485679,29.1692652 363.003906,30.2890625 C362.522133,31.4088598 362.28125,32.6067645 362.28125,33.8828125 L362.28125,58.5703125 C362.28125,59.8463605 362.522133,61.0442652 363.003906,62.1640625 C363.485679,63.2838598 364.143225,64.2669229 364.976562,65.1132812 C365.8099,65.9596396 366.799473,66.6236955 367.945312,67.1054688 C369.091152,67.587242 370.328118,67.828125 371.65625,67.828125 C372.750005,67.828125 373.778641,67.6783869 374.742188,67.3789062 C375.705734,67.0794256 376.584631,66.6562527 377.378906,66.109375 C378.173181,65.5624973 378.863278,64.9114621 379.449219,64.15625 C380.035159,63.4010379 380.484373,62.5677129 380.796875,61.65625 L386.96875,61.65625 C386.604165,63.4270922 385.96615,65.0677008 385.054688,66.578125 C384.143225,68.0885492 383.016934,69.3906195 381.675781,70.484375 C380.334629,71.5781305 378.817717,72.4374969 377.125,73.0625 C375.432283,73.6875031 373.609385,74 371.65625,74 C369.468739,74 367.430999,73.5963582 365.542969,72.7890625 C363.654938,71.9817668 362.00782,70.8815174 360.601562,69.4882812 C359.195305,68.0950451 358.095056,66.4609469 357.300781,64.5859375 C356.506506,62.7109281 356.109375,60.7057398 356.109375,58.5703125 L356.109375,33.8828125 C356.109375,31.7473852 356.506506,29.7421969 357.300781,27.8671875 C358.095056,25.9921781 359.195305,24.3580799 360.601562,22.9648438 C362.00782,21.5716076 363.654938,20.4713582 365.542969,19.6640625 C367.430999,18.8567668 369.468739,18.453125 371.65625,18.453125 C373.609385,18.453125 375.438794,18.7656219 377.144531,19.390625 C378.850269,20.0156281 380.367181,20.8815049 381.695312,21.9882812 C383.023444,23.0950576 384.143225,24.4036383 385.054688,25.9140625 C385.96615,27.4244867 386.604165,29.0520746 386.96875,30.796875 L380.796875,30.796875 C380.484373,29.9114539 380.035159,29.0911496 379.449219,28.3359375 C378.863278,27.5807254 378.179691,26.9296902 377.398438,26.3828125 C376.617184,25.8359348 375.738286,25.4062516 374.761719,25.09375 C373.785151,24.7812484 372.750005,24.625 371.65625,24.625 Z M405.25,44.2734375 L422.984375,18.453125 L429.9375,18.453125 L411.421875,46.2265625 L429.9375,74 L422.90625,74 L405.25,47.984375 L405.25,74 L399.078125,74 L399.078125,18.453125 L405.25,18.453125 L405.25,44.2734375 Z M442.046875,18.453125 L472.90625,18.453125 L472.90625,24.625 L448.21875,24.625 L448.21875,43.140625 L466.734375,43.140625 L466.734375,49.3125 L448.21875,49.3125 L448.21875,67.828125 L472.90625,67.828125 L472.90625,74 L442.046875,74 L442.046875,18.453125 Z M497.359375,24.625 L485.015625,24.625 L485.015625,18.453125 L515.875,18.453125 L515.875,24.625 L503.53125,24.625 L503.53125,74 L497.359375,74 L497.359375,24.625 Z" id="Rectangle-5"></path>
                </g>
            </g>
        </g>
    </g>
</svg>